<svg id="设计图" xmlns="http://www.w3.org/2000/svg" viewBox="0 0 57 57"><defs><style>.cls-1,.cls-2{fill:#fff;}.cls-1{opacity:0.1;}.cls-2{stroke:#fff;stroke-miterlimit:10;stroke-width:0.4px;opacity:0.9;}</style></defs><title>icon</title><path class="cls-1" d="M56.64,28.5A28.14,28.14,0,1,1,28.5.36,28.14,28.14,0,0,1,56.64,28.5Z"/><path class="cls-2" d="M35.27,17.21a.69.69,0,0,0-.68.7.69.69,0,0,0,.68.71h2.66V31.27h-7a.69.69,0,0,0-.68.7.69.69,0,0,0,.68.71h7v5.7H27.38v-2a.67.67,0,1,0-1.34,0v2h-7V29.19h7V32a.67.67,0,1,0,1.34,0V25A.67.67,0,1,0,26,25v2.75h-7V18.62h7v2a.67.67,0,1,0,1.34,0v-2H31a.69.69,0,0,0,.67-.71.68.68,0,0,0-.67-.7H18.39a.68.68,0,0,0-.67.7V39.09a.68.68,0,0,0,.67.7H38.6a.69.69,0,0,0,.68-.7V17.91a.69.69,0,0,0-.68-.7Zm0,0"/></svg>